<svg version="1.1" id="Layer_1" xmlns="http://www.w3.org/2000/svg" xmlns:xlink="http://www.w3.org/1999/xlink" x="0px" y="0px"
	 viewBox="0 0 1000 1000" style="enable-background:new 0 0 1000 1000;" xml:space="preserve">
<style type="text/css">
	.st0{fill:#484C4D;}
	.st1{fill:#09ff00;}
	.st2{fill:#A3D3E3;}
	.st3{opacity:0.3;fill:#00;}
	.st4{opacity:0.45;fill:#5B7882;}
	.st5{fill:#FFFFFF;}
</style>
<ellipse class="st0" cx="532.4" cy="900.8" rx="282.7" ry="37.6"/>
<g>
	<path d="M798.1,407.5c24.3-27,36.9-60.8,34.3-93.8c-3.1-39-27.5-76.7-68.5-105.9h0c-5.1-3.7-10.4-7.1-15.8-10.3
		c-4.8-20.4-15.3-38.6-24.4-51.6c-14.3-20.3-32.4-38.2-49.7-49c-31.5-19.7-66.5-29.6-96.7-37.4c-16.9-4.3-31.1-3.4-43.6-2.5
		c-8.5,0.6-15.9,1.1-23.7-0.1c-34.5-5-70.2,3-103.2,23.1c-29.2,17.8-54.8,44.5-72.1,75.3c-23.5,41.8-33.7,88.5-39,133.5
		c-7.4,0.9-15.8,1-24.5,1.1c-25.5,0.2-57.3,0.4-79.9,25.3c-19.5,21.5-20.5,50.1-21.2,69c-2.5,70.6-5,143.5-3.1,215.8
		c1.1,42,6.5,84.9,38.1,114.2c24.5,22.6,56.3,28.5,85.1,28.5c3,0,6-0.1,8.9-0.2c1.9,18.9,4.1,37.7,6.4,56.5c3,24,6.8,47.4,19.7,68.6
		c18.8,31.1,54.8,50.1,91.9,50.1c6.4,0,12.9-0.6,19.2-1.7c43.8-8.1,79.8-42.6,89.7-86c4.7-20.7,3.2-41.3,1.8-59.5
		c-0.6-7.8-1.2-15.4-1.2-22.6c9.3-0.1,20.2-0.2,32.1-0.4c-7.6,42.5,6.3,87.6,38.2,115.2c19.4,16.8,45.2,25.9,72,25.9
		c3.6,0,7.2-0.2,10.9-0.5c29.2-2.7,54.5-15.9,71.4-37c18.6-23.3,24.7-51.5,29.4-78.4c20.8-120.4,26.9-243.3,18.1-365.2L798.1,407.5z
		"/>
	<path class="st1" d="M748.7,495.5c-0.2-16.6-0.8-33.2-1.6-49.9c-19.2,9.7-41.6,17.3-68.2,23.3c-25.2,5.7-48.3,8.5-69.5,8.5
		c-19.8,0-38.1-2.5-55-7.4c-53.3-15.4-97.6-57.6-115.7-110c-14.1-40.7-12-87.1,5.6-127.2c19.2-43.6,66.7-56.3,95.1-63.8
		c44-11.7,90-12.1,133.1-2.1c-8.5-10.3-18-19.1-26.8-24.6c-25.1-15.6-55.3-24.2-81.7-31c-8.5-2.2-16.5-1.7-26.7-1
		c-10.1,0.7-21.5,1.5-35-0.5c-51.2-7.4-98.6,32-121,71.7c-1.2,2.1-2.3,4.2-3.4,6.3c-24.6,47.6-30,103.9-33.4,157.8
		c-9.3,148.6-4.5,298.9,14,446.6c2.4,18.8,4.9,35.3,12.4,47.5c10.5,17.3,34.4,27.4,55.6,23.5c22.3-4.1,42.1-23.1,47.2-45.2
		c2.9-12.9,1.8-27.8,0.6-43.6c-1.4-18-2.9-38.5,1.7-59.2c2.7-11.9,13-20.4,25.1-20.9l0.9,0c0.4,0,0.7,0,1.1,0
		c21.6,0.1,128.9-1.3,180.9-5.5c0,0-26.5,50.5-69.8,57c-9.2,26.8-2.2,59.2,17.6,76.3c10.9,9.4,27,14.1,42.9,12.6
		c14.3-1.3,26.9-7.6,34.5-17.1c10.7-13.4,14.8-33.2,18.4-54.1C742.9,675.1,749.9,585.2,748.7,495.5z M288.2,400.7
		c0.7-19.3,1.7-38.5,2.9-57.7c-6.6,0.4-13.2,0.4-19.5,0.5c-21.1,0.1-34.3,0.7-40.6,7.7c-6.4,7-6.9,23.8-7.3,34.9
		c-0.2,5.9-0.4,11.8-0.6,17.7c-2.2,64.2-4.2,130.1-2.5,194.8c0.8,30.3,3.9,60.5,20.9,76.3c12.7,11.7,31.9,14.7,52.8,14.1
		C286.5,593.2,284.5,496.7,288.2,400.7z"/>
	<path class="st2" d="M778.6,330c-2.5,18.7-13.9,37.9-31.5,52.3c-18.8,15.4-44.3,26.4-80.1,34.4c-40.2,9-71.3,9.7-97.9,1.9
		c-36.8-10.7-67.5-39.8-80-76.1c-9.7-28.1-8.3-60.3,4-88.1c1.3-2.9,2.8-5.8,5.5-8.8c6.8-7.7,20.6-15.9,54.5-24.9
		c18.8-5,38.1-7.5,57.2-7.5c44.1,0,87.4,13.1,122.5,38.1c37.8,26.9,45.2,53.3,46.2,66.6C779.3,321.9,779.2,326,778.6,330z"/>
	<path class="st3" d="M294.2,689c-20.8,0.6-40.1-2.4-52.8-14.1c-17.1-15.8-20.2-46-20.9-76.3c-1.7-64.6,0.3-130.6,2.5-194.8
		c19.3-8,42.8-6.8,65.2-3.1C284.5,496.7,286.5,593.2,294.2,689z M748.7,495.5c-15,55.3-54.1,104.3-106.7,127.1
		c-69,29.9-157,10.7-204.7-47.4c-30.6-37.2-43.6-85.6-52-133c-14.7-83.8-17.2-169.8-7.4-254.3c-24.6,47.6-30,103.9-33.4,157.8
		c-9.3,148.6-4.5,298.9,14,446.6c2.4,18.8,4.9,35.3,12.4,47.5c10.5,17.3,34.4,27.4,55.6,23.5c22.3-4.1,42.1-23.1,47.2-45.2
		c2.9-12.9,1.8-27.8,0.6-43.6c-1.4-18-2.9-38.5,1.7-59.2c2.7-11.9,13-20.4,25.1-20.9l0.9,0c0.4,0,0.7,0,1.1,0
		c21.6,0.1,128.9-1.3,180.9-5.5c0,0-26.5,50.5-69.8,57c-9.2,26.8-2.2,59.2,17.6,76.3c10.9,9.4,27,14.1,42.9,12.6
		c14.3-1.3,26.9-7.6,34.5-17.1c10.7-13.4,14.8-33.2,18.4-54.1C742.9,675.1,749.9,585.2,748.7,495.5z"/>
	<path class="st4" d="M778.6,330c-2.5,18.7-13.9,37.9-31.5,52.3c-18.8,15.4-44.3,26.4-80.1,34.4c-40.2,9-71.3,9.7-97.9,1.9
		c-36.8-10.7-67.5-39.8-80-76.1c-9.7-28.1-8.3-60.3,4-88.1c1.3-2.9,2.8-5.8,5.5-8.8c7.1,10.6,12.4,38.4,17.3,46.6
		c10.3,17.1,25.1,31.8,42.2,42.2c36.1,22,80.6,26.7,122.5,21.4C714.2,351.6,746.7,341.4,778.6,330z"/>
	<path class="st5" d="M609.2,283.8c-6.8-2.5-12.8-8.5-13-15.7c-0.3-10.5,10.8-17.5,20.7-20.9c28.1-9.5,59.6-8.4,87,2.9
		c7.8,3.2,16.3,8.6,17,17c0.9,9.4-8.9,16.8-18.3,17.8c-9.4,1-18.6-2.3-27.9-3.8C653.1,277.5,631.4,291.9,609.2,283.8z"/>
</g>
</svg>
